<?xml version="1.0" standalone="no"?>
<!DOCTYPE svg PUBLIC "-//W3C//DTD SVG 1.1//EN" "http://www.w3.org/Graphics/SVG/1.1/DTD/svg11.dtd">
<svg xmlns="http://www.w3.org/2000/svg" xmlns:xlink="http://www.w3.org/1999/xlink" version="1.1" id="Horizontal_CMYK" x="0px" y="0px" viewBox="0 0 504 100.3" style="enable-background:new 0 0 504 100.3;" xml:space="preserve" width="504" height="100.30000305175781">
<style type="text/css">
	.st0{fill:#FFFFFF;}
</style>
<g id="logo_00000084491635896680693360000011309527631192474513_">
	<g>
		<g>
			<path class="st0" d="M23.3,55.1h1.4c4.2,0,5.6,2,5.6,6.6v14c0,4.5-0.8,6.9-4.8,6.9h-2.1V55.1z M23.3,37.8v-20h2.3     c4.4,0,5,3,5,6.3v7.8c0,4.4-1.7,5.9-4.4,5.9H23.3z M0,98.6c0,0.4,0.2,0.9,0.5,1.2s0.7,0.5,1.2,0.5h26.8c19.7,0,27-8,27-26.8v-8.6     c0-12.3-6.6-16.6-12-18.7c5.7-1.8,10.7-6.5,10.7-18.8v-5C54.1,6,43.4,0,27.9,0H1.7C1.2,0,0.8,0.2,0.5,0.5C0.2,0.8,0,1.2,0,1.7     C0,13.7,0,86.6,0,98.6z"/>
		</g>
		<g>
			<path class="st0" d="M81.8,17.8h1.4c4.7,0,6,1.2,6,6.8v8c0,6.3-1.7,7.7-5.6,7.7h-1.8V17.8z M57.9,98.6c0,0.9,0.7,1.7,1.7,1.7     c4.4,0,16.1,0,20.5,0c0.9,0,1.7-0.7,1.7-1.7c0-7.8,0-40.6,0-40.6h1.2c4.8,0,5.7,0.8,5.7,10.7c0,17.2,0,26.4,0,29.9     c0,0.4,0.2,0.9,0.5,1.2c0.3,0.3,0.7,0.5,1.2,0.5c4.4,0,16.4,0,20.8,0c0.9,0,1.7-0.7,1.7-1.7c0-3.3,0-11.3-0.3-22.5     c-0.4-14.6-1.9-23-8.7-26.7c5.9-3,9.6-8.7,9.6-20v-3.6C113.3,9.9,107.1,0,87.5,0h-28c-0.4,0-0.9,0.2-1.2,0.5     c-0.3,0.3-0.5,0.7-0.5,1.2V98.6z"/>
		</g>
		<g>
			<path class="st0" d="M141.7,59.3c0.5-9.8,2.7-39.3,2.7-39.3s2.8,31.6,3.2,39.3H141.7z M148.6,79.2c0,0,0.8,14.6,1.1,19.5     c0.1,0.9,0.8,1.6,1.7,1.6c4.4,0,16.6,0,21.3,0c0.5,0,0.9-0.2,1.2-0.6c0.3-0.4,0.5-0.8,0.4-1.3c-1.3-12.6-9-85.6-10.2-97     C164,0.6,163.3,0,162.5,0c-6.1,0-29,0-35.1,0c-0.9,0-1.6,0.6-1.7,1.5c-1.2,11.4-9,84.4-10.3,97c-0.1,0.5,0.1,0.9,0.4,1.3     c0.3,0.4,0.8,0.6,1.2,0.6c4.6,0,16.6,0,21,0c0.9,0,1.6-0.7,1.7-1.6c0.3-4.9,1.1-19.5,1.1-19.5H148.6z"/>
		</g>
		<g>
			<path class="st0" d="M195.1,100.3c0.9,0,1.7-0.7,1.7-1.7c0-9.5,0-56.5,0-56.5c0.4,3,6.6,48,7.8,56.7c0.1,0.8,0.8,1.4,1.7,1.4     c4.6,0,18.9,0,23.8,0c0.9,0,1.7-0.7,1.7-1.7c0-12,0-85,0-97c0-0.4-0.2-0.9-0.5-1.2c-0.3-0.3-0.7-0.5-1.2-0.5     c-3.9,0-13.5,0-17.4,0c-0.9,0-1.6,0.7-1.7,1.6c-0.3,7.5-1.4,39.2,0.1,53.1c0,0-8-44.8-9.5-53.3c-0.1-0.8-0.8-1.4-1.6-1.4H178     c-0.4,0-0.9,0.2-1.2,0.5c-0.3,0.3-0.5,0.7-0.5,1.2c0,12,0,85,0,97c0,0.9,0.7,1.7,1.7,1.7C181.8,100.3,191.3,100.3,195.1,100.3z"/>
		</g>
		<g>
			<path class="st0" d="M258.6,17.9h2c3.3,0,5.3,1.2,5.3,6.5v51.4c0,4.5-1.4,6.6-5.1,6.6h-2.1V17.9z M234.6,98.6     c0,0.4,0.2,0.9,0.5,1.2c0.3,0.3,0.7,0.5,1.2,0.5h28c20.3,0,25.7-11.4,25.7-32.4V31c0-23.3-9.5-31-29.2-31h-24.5     c-0.9,0-1.7,0.7-1.7,1.7C234.6,13.7,234.6,86.6,234.6,98.6z"/>
		</g>
	</g>
	<g>
		<g>
			<path class="st0" d="M316.4,55.1h1.4c4.2,0,5.6,2,5.6,6.6v14c0,4.5-0.8,6.9-4.8,6.9h-2.1V55.1z M316.4,37.8v-20h2.3     c4.4,0,5,3,5,6.3v7.8c0,4.4-1.7,5.9-4.4,5.9H316.4z M293.1,98.6c0,0.4,0.2,0.9,0.5,1.2c0.3,0.3,0.7,0.5,1.2,0.5h26.8     c19.7,0,27-8,27-26.8v-8.6c0-12.3-6.6-16.6-12-18.7c5.7-1.8,10.7-6.5,10.7-18.8v-5C347.1,6,336.4,0,320.9,0h-26.2     c-0.4,0-0.9,0.2-1.2,0.5c-0.3,0.3-0.5,0.7-0.5,1.2C293.1,13.7,293.1,86.6,293.1,98.6z"/>
		</g>
		<g>
			<path class="st0" d="M351.4,98.6c0,0.4,0.2,0.9,0.5,1.2c0.3,0.3,0.7,0.5,1.2,0.5c7.3,0,36.3,0,43.9,0c0.5,0,0.9-0.2,1.2-0.5     c0.3-0.3,0.5-0.8,0.4-1.3c-0.4-4-1.3-13.3-1.7-17c-0.1-0.9-0.8-1.5-1.7-1.5c-4.9,0-19.9,0-19.9,0V1.7c0-0.4-0.2-0.9-0.5-1.2     c-0.3-0.3-0.7-0.5-1.2-0.5H353c-0.4,0-0.9,0.2-1.2,0.5c-0.3,0.3-0.5,0.7-0.5,1.2C351.4,13.7,351.4,86.6,351.4,98.6z"/>
		</g>
		<g>
			<path class="st0" d="M393,0c-0.5,0-0.9,0.2-1.2,0.6c-0.3,0.4-0.5,0.8-0.4,1.3c1.3,12.6,8.9,85.6,10,97c0.1,0.9,0.8,1.5,1.7,1.5     c5.6,0,25.3,0,30.9,0c0.9,0,1.6-0.6,1.7-1.5c1.2-11.4,9.1-84.4,10.5-97c0.1-0.5-0.1-0.9-0.4-1.3c-0.3-0.4-0.8-0.6-1.2-0.6     c-4.6,0-16.3,0-20.6,0c-0.9,0-1.6,0.7-1.7,1.6c-0.4,10.6-2.6,70-2.6,70s-2.9-59.5-3.5-70.1c0-0.9-0.8-1.6-1.7-1.6     C410,0,397.7,0,393,0z"/>
		</g>
		<g>
			<path class="st0" d="M472.5,17.9h2c3.3,0,5.3,1.2,5.3,6.5v51.4c0,4.5-1.4,6.6-5.1,6.6h-2.1V17.9z M448.6,98.6     c0,0.4,0.2,0.9,0.5,1.2c0.3,0.3,0.7,0.5,1.2,0.5h28c20.3,0,25.8-11.4,25.8-32.4V31c0-23.3-9.5-31-29.2-31h-24.5     c-0.9,0-1.7,0.7-1.7,1.7C448.6,13.7,448.6,86.6,448.6,98.6z"/>
		</g>
	</g>
</g>
</svg>