<?xml version="1.0" standalone="no"?>
<!DOCTYPE svg PUBLIC "-//W3C//DTD SVG 1.1//EN" "http://www.w3.org/Graphics/SVG/1.1/DTD/svg11.dtd">
<svg xmlns="http://www.w3.org/2000/svg" xmlns:xlink="http://www.w3.org/1999/xlink" version="1.1" id="Icon_CMYK" x="0px" y="0px" viewBox="0 0 288 288" style="enable-background:new 0 0 288 288;" xml:space="preserve" width="288" height="288">
<style type="text/css">
	.st0{fill:#FFFFFF;}
</style>
<g>
	<path class="st0" d="M192.7,153.8h2.8c7.9,0,10.5,2.1,10.5,19.3c0,15.4-2.3,18.8-10,18.8h-3.3V153.8z M192.7,125.4V96.1h4   c7,0,8.4,4,8.4,14.7c0,10.9-1.6,14.7-8.1,14.7L192.7,125.4L192.7,125.4z M148.3,218.1c0,2.4,1.9,4.3,4.3,4.3c12.9,0,50.4,0,50.4,0   c34.4,0,51.4-14.4,51.4-47.2c0-23-12.3-32.8-24.2-37c11.8-4.2,20.2-12.3,20.2-32.1c0-27.9-16.7-40.5-44.9-40.5h-53   c-2.4,0-4.3,1.9-4.3,4.3C148.3,92.2,148.3,195.8,148.3,218.1z"/>
	<path class="st0" d="M95.3,153.8h-2.8c-7.9,0-10.5,2.1-10.5,19.3c0,15.4,2.3,18.8,10,18.8h3.3V153.8z M95.3,125.4V96.1h-4   c-7,0-8.4,4-8.4,14.7c0,10.9,1.6,14.7,8.1,14.7L95.3,125.4L95.3,125.4z M139.7,218.1c0,2.4-1.9,4.3-4.3,4.3c-12.9,0-50.4,0-50.4,0   c-34.4,0-51.4-14.4-51.4-47.2c0-23,12.3-32.8,24.2-37C46,134,37.6,125.9,37.6,106.1c0-27.9,16.7-40.5,44.9-40.5h53   c2.4,0,4.3,1.9,4.3,4.3C139.7,92.2,139.7,195.8,139.7,218.1z"/>
</g>
</svg>